# xmcd
#
# Track frame offsets:
#	150
#	11606
#	23846
#	33795
#	51721
#	67504
#	78672
#	93656
#	106143
#	115168
#	129674
#	139771
#	150074
#	161118
#	171462
#	182383
#	197878
#	207274
#	218607
#	230434
#
# Disc length: 3189 seconds
#
# Revision: 1
# Processed by: cddbd v1.5.2PL0 Copyright (c) Steve Scherf et al.
# Submitted via: audiograbber 1.83.01
#
DISCID=080c7314
DTITLE=Eldora Baldwin - Gonna Rise
DYEAR=2004
DGENRE=Contemporary ChristianChristian Rock
TTITLE0=Gonna Rise
TTITLE1=Harvest Fields
TTITLE2=Holding On To The Promises
TTITLE3=No Doubt About It
TTITLE4=He's My Father
TTITLE5=It'll Be Allright
TTITLE6=Good Morning Jesus
TTITLE7=That Name Is Jesus
TTITLE8=You Can Count On That
TTITLE9=Come Follow Me
TTITLE10=Give The Helm To Me
TTITLE11=Maybe At A Latter Day
TTITLE12=It Was The Blood
TTITLE13=Shattered Pieces
TTITLE14=King Jesus
TTITLE15=His Heart Reached Down
TTITLE16=Put Your Trust In Me
TTITLE17=Hallelujah
TTITLE18=The Sheep That Went A Wandering
TTITLE19=I'm Walkin' And Talkin'
EXTD=
EXTT0=
EXTT1=
EXTT2=
EXTT3=
EXTT4=
EXTT5=
EXTT6=
EXTT7=
EXTT8=
EXTT9=
EXTT10=
EXTT11=
EXTT12=
EXTT13=
EXTT14=
EXTT15=
EXTT16=
EXTT17=
EXTT18=
EXTT19=
PLAYORDER=
